<?xml version="1.0" encoding="UTF-8"?>
<svg fill="none" viewBox="0 0 155 71" xmlns="http://www.w3.org/2000/svg">
<path d="m33.48 38.581c0.2 0.56 0.34 1.2 0.42 1.92 0.12 0.68 0.18 1.38 0.18 2.1s-0.06 1.44-0.18 2.16c-0.08 0.68-0.2 1.28-0.36 1.8-0.64 2.24-1.92 4.12-3.84 5.64-1.92 1.48-4.12 2.56-6.6 3.24-2.44 0.68-4.98 0.92-7.62 0.72-2.6-0.2-4.92-0.86-6.96-1.98-1.28-0.72-2.38-1.6-3.3-2.64s-1.7-2.2-2.34-3.48c-0.24-0.44-0.4-0.94-0.48-1.5-0.04-0.6 0.02-1.16 0.18-1.68 0.16-0.56 0.42-1.04 0.78-1.44 0.36-0.44 0.86-0.74 1.5-0.9 0.4-0.08 0.84-0.12 1.32-0.12 0.52 0 1.02 0.08 1.5 0.24 0.48 0.12 0.92 0.34 1.32 0.66 0.4 0.28 0.72 0.68 0.96 1.2 0.44003 0.84 1.06 1.62 1.86 2.34 0.84 0.68 1.72 1.24 2.64 1.68 1.32 0.44 2.64 0.62 3.96 0.54 1.36-0.08 2.58-0.38 3.66-0.9 1.12-0.52 2.02-1.22 2.7-2.1 0.68-0.92 1.02-1.96 1.02-3.12 0-0.96-0.14-1.74-0.42-2.34-0.28-0.64-0.68-1.16-1.2-1.56-0.48-0.44-1.08-0.8-1.8-1.08-0.68-0.28-1.44-0.52-2.28-0.72-0.96-0.2-1.94-0.34-2.94-0.42-0.96-0.08-1.94-0.18-2.94-0.3s-1.98-0.28-2.94-0.48-1.9-0.5-2.82-0.9c-1.84-0.76-3.24-1.92-4.2-3.48s-1.54-3.24-1.74-5.04c-0.16-1.8 0.06-3.58 0.66-5.34 0.6-1.8 1.56-3.34 2.88-4.62 1.28-1.16 2.8-1.98 4.56-2.46 1.8-0.52 3.78-0.82 5.94-0.9 1.2-0.04 2.4 0 3.6 0.12 1.24 0.12 2.42 0.32 3.54 0.6 1.16 0.28 2.22 0.64 3.18 1.08 1 0.44 1.86 0.96 2.58 1.56 0.52 0.4 1.04 0.94 1.56 1.62 0.52 0.64 0.92 1.34 1.2 2.1 0.28 0.72 0.36 1.42 0.24 2.1-0.08 0.68-0.5 1.26-1.26 1.74-0.64 0.4-1.26 0.58-1.86 0.54-0.56-0.08-1.1-0.26-1.62-0.54-0.52-0.32-1.02-0.68-1.5-1.08s-0.92-0.76-1.32-1.08c-1.08-0.8-2.42-1.34-4.02-1.62s-3.1-0.34-4.5-0.18c-0.88 0.12-1.7 0.32-2.46 0.6s-1.42 0.66-1.98 1.14c-0.52 0.48-0.94 1.08-1.26 1.8-0.28 0.68-0.38 1.46-0.3 2.34 0.04 0.64 0.22 1.18 0.54 1.62 0.36 0.44 0.78 0.8 1.26 1.08 0.52 0.28 1.08 0.5 1.68 0.66s1.2 0.28 1.8 0.36c1.8 0.24 3.6 0.42 5.4 0.54s3.56 0.52 5.28 1.2c1.76 0.68 3.26 1.6 4.5 2.76s2.12 2.56 2.64 4.2zm22.224-9.54c1.16 0.48 2.22 1.18 3.18 2.1 0.96 0.88 1.78 1.9 2.46 3.06 0.72 1.16 1.26 2.42 1.62 3.78 0.4 1.32 0.6 2.66 0.6 4.02 0.04 2.04-0.44 3.96-1.44 5.76-0.96 1.8-2.54 3.18-4.74 4.14-1.68 0.68-3.42 1.2-5.22 1.56-1.76 0.32-3.6 0.54-5.52 0.66v10.98c0 0.24-0.04 0.46-0.12 0.66-0.04 0.2-0.06 0.4-0.06 0.6-0.08 0.4-0.18 0.76-0.3 1.08-0.08 0.32-0.2 0.66-0.36 1.02-0.16 0.24-0.32 0.46-0.48 0.66s-0.34 0.4-0.54 0.6c-0.96 0.48-1.96 0.58-3 0.3-0.64-0.04-1.16-0.24-1.56-0.6-0.36-0.36-0.62-0.74-0.78-1.14s-0.3-0.86-0.42-1.38l-0.12-0.6v-0.54-33.42-0.72l0.12-0.84c0.04-0.48 0.16-0.96 0.36-1.44 0.36-1 1.1-1.68 2.22-2.04s2.38-0.52 3.78-0.48c0.96 0.04 1.94 0.14 2.94 0.3 1.04 0.16 2.02 0.36 2.94 0.6 0.96 0.2 1.82 0.42 2.58 0.66s1.38 0.46 1.86 0.66zm0.12 12.96c0.16-1.12 0.02-2.06-0.42-2.82-0.4-0.8-0.98-1.44-1.74-1.92-0.76-0.52-1.64-0.92-2.64-1.2-0.96-0.28-1.92-0.48-2.88-0.6-0.12-0.04-0.32-0.06-0.6-0.06h-0.84v3.72c0.04 1.16 0.04 2.42 0 3.78v4.02c0.92-0.04 1.88-0.14 2.88-0.3 1.04-0.16 2-0.42 2.88-0.78s1.62-0.84 2.22-1.44c0.64-0.6 1.02-1.4 1.14-2.4zm20.171-8.7v3.78c0.04 1.4 0.06 2.86 0.06 4.38v4.44c0 1.44-0.02 2.78-0.06 4.02-0.04 0.6-0.1 1.26-0.18 1.98-0.08 0.68-0.24 1.32-0.48 1.92s-0.62 1.1-1.14 1.5c-0.48 0.36-1.14 0.52-1.98 0.48-1.24-0.08-2.14-0.62-2.7-1.62-0.52-1-0.82-2.4-0.9-4.2 0-0.92-0.02-1.98-0.06-3.18 0-1.2-0.02-2.42-0.06-3.66v-3.6-3.24c0-0.56-0.02-1.24-0.06-2.04 0-0.8 0.02-1.62 0.06-2.46s0.14-1.64 0.3-2.4c0.16-0.8 0.42-1.46 0.78-1.98 0.28-0.32 0.68-0.56 1.2-0.72 0.52-0.2 1.06-0.3 1.62-0.3 0.6 0 1.16 0.1 1.68 0.3 0.56 0.2 0.96 0.48 1.2 0.84 0.16 0.24 0.28 0.58 0.36 1.02s0.14 0.94 0.18 1.5c0.08 0.52 0.12 1.08 0.12 1.68 0.04 0.56 0.06 1.08 0.06 1.56zm-2.28-12.12c-1.24 0.32-2.28 0.2-3.12-0.36-0.8-0.6-1.3-1.48-1.5-2.64-0.16-0.84-0.1-1.58 0.18-2.22s0.7-1.12 1.26-1.44c0.56-0.36 1.2-0.52 1.92-0.48s1.44 0.32 2.16 0.84c0.68 0.48 1.16 1.04 1.44 1.68 0.32 0.64 0.42 1.26 0.3 1.86-0.08 0.6-0.34 1.16-0.78 1.68-0.44 0.48-1.06 0.84-1.86 1.08zm7.6121 13.62v-1.62c0-0.64 0.02-1.28 0.06-1.92 0.04-0.68 0.1-1.32 0.18-1.92 0.12-0.64 0.28-1.2 0.48-1.68 0.32-0.72 0.82-1.2 1.5-1.44 0.68-0.28 1.42-0.4 2.22-0.36 0.84 0 1.5 0.14 1.98 0.42s0.84 0.66 1.08 1.14c0.24 0.44 0.38 0.96 0.42 1.56 0.08 0.56 0.12 1.16 0.12 1.8 0.36-0.64 0.84-1.16 1.44-1.56 0.64-0.4 1.28-0.72 1.92-0.96s1.22-0.4 1.74-0.48c0.52-0.12 0.82-0.18 0.9-0.18 1-0.08 1.9-0.1 2.7-0.06 0.84 0.04 1.76 0.22 2.7604 0.54 0.64 0.24 1.3 0.58 1.98 1.02 0.68 0.4 1.28 0.88 1.8 1.44s0.86 1.18 1.02 1.86c0.2 0.64 0.12 1.32-0.24 2.04-0.56 1-1.18 1.5-1.86 1.5-0.68-0.04-1.42-0.16-2.22-0.36-0.44-0.08-0.96-0.26-1.5604-0.54-0.6-0.28-1.12-0.46-1.56-0.54-1.36-0.2-2.56-0.1-3.6 0.3s-1.94 0.88-2.7 1.44c-0.88 0.68-1.64 1.46-2.28 2.34v8.64c0 1.08-0.02 2.2-0.06 3.36 0 1.16-0.16 2.22-0.48 3.18-0.28 0.92-0.78 1.68-1.5 2.28-0.68 0.56-1.68 0.8-3 0.72-0.72-0.04-1.36-0.38-1.92-1.02-0.56-0.68-0.9-1.34-1.02-1.98-0.08-0.6-0.14-1.32-0.18-2.16s-0.08-1.72-0.12-2.64v-2.76-2.64-8.76zm32.682-4.02c1.2-0.6 2.46-1.02 3.78-1.26 1.32-0.28 2.62-0.34 3.9-0.18 1.32 0.12 2.58 0.46 3.78 1.02 1.2 0.52 2.32 1.28 3.36 2.28 1.04 1.04 1.84 2.18 2.4 3.42s0.96 2.62 1.2 4.14c0.16 1.04 0.42 2 0.78 2.88s0.74 1.76 1.14 2.64c0.44 0.88 0.84 1.76 1.2 2.64 0.4 0.88 0.72 1.8 0.96 2.76 0.2 0.92 0.12 1.82-0.24 2.7-0.32 0.84-1 1.36-2.04 1.56-0.6 0.12-1.18 0.08-1.74-0.12-0.52-0.24-1-0.56-1.44-0.96-0.44-0.44-0.84-0.9-1.2-1.38-0.32-0.52-0.62-1-0.9-1.44-0.92 1.2-1.92 2.14-3 2.82-1.08 0.64-2.38 1.06-3.9 1.26-1.28 0.16-2.5 0.2-3.66 0.12s-2.4-0.3-3.72-0.66c-1.72-0.44-3.14-1.2-4.26-2.28-1.08-1.12-1.92-2.4-2.52-3.84-0.56-1.48-0.86-3.06-0.9-4.74s0.16-3.34 0.6-4.98c0.56-2.16 1.4-3.92 2.52-5.28s2.42-2.4 3.9-3.12zm1.5 7.02c-0.56 0.56-1 1.22-1.32 1.98s-0.52 1.56-0.6 2.4c-0.04 0.84 0.04 1.68 0.24 2.52s0.52 1.58 0.96 2.22c0.4 0.56 1.08 1.04 2.04 1.44 0.96 0.36 1.96 0.58 3 0.66 1.2 0.08 2.24-0.24 3.12-0.96 0.92-0.72 1.6-1.62 2.04-2.7 0.48-1.12 0.7-2.3 0.66-3.54-0.04-1.28-0.38-2.44-1.02-3.48-0.48-0.76-1.12-1.32-1.92-1.68-0.76-0.36-1.58-0.54-2.46-0.54-0.88-0.04-1.76 0.1-2.64 0.42-0.84 0.28-1.54 0.7-2.1 1.26zm33.972 13.44-0.12 0.6v0.54l-0.36 1.26c-0.08 0.16-0.14 0.26-0.18 0.3l-0.18 0.36c-0.2 0.44-0.56 0.8-1.08 1.08-0.96 0.48-1.98 0.6-3.06 0.36-0.68-0.08-1.22-0.28-1.62-0.6-0.4-0.28-0.68-0.62-0.84-1.02s-0.28-0.8-0.36-1.2c-0.12-0.4-0.18-0.76-0.18-1.08v-33.6-0.72c0.04-0.24 0.08-0.46 0.12-0.66 0.04-0.28 0.08-0.52 0.12-0.72 0.08-0.2 0.16-0.42 0.24-0.66 0.12-0.4 0.34-0.72 0.66-0.96 0.48-0.36 0.94-0.56 1.38-0.6 0.28-0.08 0.54-0.12 0.78-0.12 0.24-0.04 0.52-0.06 0.84-0.06 0.56 0 1.2 0.16 1.92 0.48 0.56 0.32 0.96 0.76 1.2 1.32 0.4 0.8 0.6 1.54 0.6 2.22 0.04 0.4 0.06 1 0.06 1.8 0.04 0.8 0.06 1.4 0.06 1.8v0.24c0.08 1.28 0.12 2.52 0.12 3.72 0 1.16-0.02 2.44-0.06 3.84 0 1.36-0.02 2.68-0.06 3.96v3.72 12.6 0.48c0.04 0.12 0.06 0.26 0.06 0.42 0 0.4-0.02 0.7-0.06 0.9z" fill="#000"/>
</svg>
