<?xml version="1.0" encoding="UTF-8" standalone="no"?>
<svg
   width="148"
   height="58"
   viewBox="0 0 148 58"
   fill="none"
   version="1.1"
   id="svg1"
   sodipodi:docname="Spiral.svg"
   inkscape:version="1.3.2 (1:1.3.2+202311252150+091e20ef0f)"
   xmlns:inkscape="http://www.inkscape.org/namespaces/inkscape"
   xmlns:sodipodi="http://sodipodi.sourceforge.net/DTD/sodipodi-0.dtd"
   xmlns="http://www.w3.org/2000/svg"
   xmlns:svg="http://www.w3.org/2000/svg">
  <defs
     id="defs1" />
  <sodipodi:namedview
     id="namedview1"
     pagecolor="#ffffff"
     bordercolor="#000000"
     borderopacity="0.25"
     inkscape:showpageshadow="2"
     inkscape:pageopacity="0.0"
     inkscape:pagecheckerboard="0"
     inkscape:deskcolor="#d1d1d1"
     inkscape:zoom="8.6283784"
     inkscape:cx="74"
     inkscape:cy="28.974158"
     inkscape:window-width="1846"
     inkscape:window-height="1016"
     inkscape:window-x="74"
     inkscape:window-y="27"
     inkscape:window-maximized="1"
     inkscape:current-layer="svg1" />
  <path
     d="M31.4804 25.5805C31.6804 26.1405 31.8204 26.7805 31.9004 27.5005C32.0204 28.1805 32.0804 28.8805 32.0804 29.6005C32.0804 30.3205 32.0204 31.0405 31.9004 31.7605C31.8204 32.4405 31.7004 33.0405 31.5404 33.5605C30.9004 35.8005 29.6204 37.6805 27.7004 39.2005C25.7804 40.6805 23.5804 41.7605 21.1004 42.4405C18.6604 43.1205 16.1204 43.3605 13.4804 43.1605C10.8804 42.9605 8.56037 42.3005 6.52037 41.1805C5.24037 40.4605 4.14037 39.5805 3.22037 38.5405C2.30037 37.5005 1.52037 36.3405 0.880366 35.0605C0.640366 34.6205 0.480366 34.1205 0.400366 33.5605C0.360366 32.9605 0.420366 32.4005 0.580366 31.8805C0.740366 31.3205 1.00037 30.8405 1.36037 30.4405C1.72037 30.0005 2.22037 29.7005 2.86037 29.5405C3.26037 29.4605 3.70037 29.4205 4.18037 29.4205C4.70037 29.4205 5.20037 29.5005 5.68037 29.6605C6.16037 29.7805 6.60037 30.0005 7.00037 30.3205C7.40037 30.6005 7.72037 31.0005 7.96037 31.5205C8.40037 32.3605 9.02037 33.1405 9.82037 33.8605C10.6604 34.5405 11.5404 35.1005 12.4604 35.5405C13.7804 35.9805 15.1004 36.1605 16.4204 36.0805C17.7804 36.0005 19.0004 35.7005 20.0804 35.1805C21.2004 34.6605 22.1004 33.9605 22.7804 33.0805C23.4604 32.1605 23.8004 31.1205 23.8004 29.9605C23.8004 29.0005 23.6604 28.2205 23.3804 27.6205C23.1004 26.9805 22.7004 26.4605 22.1804 26.0605C21.7004 25.6205 21.1004 25.2605 20.3804 24.9805C19.7004 24.7005 18.9404 24.4605 18.1004 24.2605C17.1404 24.0605 16.1604 23.9205 15.1604 23.8405C14.2004 23.7605 13.2204 23.6605 12.2204 23.5405C11.2204 23.4205 10.2404 23.2605 9.28037 23.0605C8.32037 22.8605 7.38037 22.5605 6.46037 22.1605C4.62037 21.4005 3.22037 20.2405 2.26037 18.6805C1.30037 17.1205 0.720366 15.4405 0.520366 13.6405C0.360366 11.8405 0.580366 10.0605 1.18037 8.30052C1.78037 6.50053 2.74037 4.96053 4.06037 3.68053C5.34037 2.52052 6.86037 1.70052 8.62037 1.22053C10.4204 0.700525 12.4004 0.400526 14.5604 0.320527C15.7604 0.280525 16.9604 0.320524 18.1604 0.440525C19.4004 0.560526 20.5804 0.760526 21.7004 1.04052C22.8604 1.32053 23.9204 1.68053 24.8804 2.12052C25.8804 2.56053 26.7404 3.08053 27.4604 3.68053C27.9804 4.08053 28.5004 4.62053 29.0204 5.30053C29.5404 5.94053 29.9404 6.64053 30.2204 7.40052C30.5004 8.12053 30.5804 8.82053 30.4604 9.50053C30.3804 10.1805 29.9604 10.7605 29.2004 11.2405C28.5604 11.6405 27.9404 11.8205 27.3404 11.7805C26.7804 11.7005 26.2404 11.5205 25.7204 11.2405C25.2004 10.9205 24.7004 10.5605 24.2204 10.1605C23.7404 9.76053 23.3004 9.40053 22.9004 9.08052C21.8204 8.28053 20.4804 7.74053 18.8804 7.46052C17.2804 7.18053 15.7804 7.12053 14.3804 7.28053C13.5004 7.40052 12.6804 7.60052 11.9204 7.88053C11.1604 8.16052 10.5004 8.54052 9.94037 9.02053C9.42037 9.50053 9.00037 10.1005 8.68037 10.8205C8.40037 11.5005 8.30037 12.2805 8.38037 13.1605C8.42037 13.8005 8.60037 14.3405 8.92037 14.7805C9.28037 15.2205 9.70037 15.5805 10.1804 15.8605C10.7004 16.1405 11.2604 16.3605 11.8604 16.5205C12.4604 16.6805 13.0604 16.8005 13.6604 16.8805C15.4604 17.1205 17.2604 17.3005 19.0604 17.4205C20.8604 17.5405 22.6204 17.9405 24.3404 18.6205C26.1004 19.3005 27.6004 20.2205 28.8404 21.3805C30.0804 22.5405 30.9604 23.9405 31.4804 25.5805ZM53.7043 16.0405C54.8643 16.5205 55.9243 17.2205 56.8843 18.1405C57.8443 19.0205 58.6643 20.0405 59.3443 21.2005C60.0643 22.3605 60.6043 23.6205 60.9643 24.9805C61.3643 26.3005 61.5643 27.6405 61.5643 29.0005C61.6043 31.0405 61.1243 32.9605 60.1243 34.7605C59.1643 36.5605 57.5843 37.9405 55.3843 38.9005C53.7043 39.5805 51.9643 40.1005 50.1643 40.4605C48.4043 40.7805 46.5643 41.0005 44.6443 41.1205V52.1005C44.6443 52.3405 44.6043 52.5605 44.5243 52.7605C44.4843 52.9605 44.4643 53.1605 44.4643 53.3605C44.3843 53.7605 44.2843 54.1205 44.1643 54.4405C44.0843 54.7605 43.9643 55.1005 43.8043 55.4605C43.6443 55.7005 43.4843 55.9205 43.3243 56.1205C43.1643 56.3205 42.9843 56.5205 42.7843 56.7205C41.8243 57.2005 40.8243 57.3005 39.7843 57.0205C39.1443 56.9805 38.6243 56.7805 38.2243 56.4205C37.8643 56.0605 37.6043 55.6805 37.4443 55.2805C37.2843 54.8805 37.1443 54.4205 37.0243 53.9005C36.9843 53.7005 36.9443 53.5005 36.9043 53.3005C36.9043 53.1405 36.9043 52.9605 36.9043 52.7605V19.3405C36.9043 19.1005 36.9043 18.8605 36.9043 18.6205C36.9443 18.3405 36.9843 18.0605 37.0243 17.7805C37.0643 17.3005 37.1843 16.8205 37.3843 16.3405C37.7443 15.3405 38.4843 14.6605 39.6043 14.3005C40.7243 13.9405 41.9843 13.7805 43.3843 13.8205C44.3443 13.8605 45.3243 13.9605 46.3243 14.1205C47.3643 14.2805 48.3443 14.4805 49.2643 14.7205C50.2243 14.9205 51.0843 15.1405 51.8443 15.3805C52.6043 15.6205 53.2243 15.8405 53.7043 16.0405ZM53.8243 29.0005C53.9843 27.8805 53.8443 26.9405 53.4043 26.1805C53.0043 25.3805 52.4243 24.7405 51.6643 24.2605C50.9043 23.7405 50.0243 23.3405 49.0243 23.0605C48.0643 22.7805 47.1043 22.5805 46.1443 22.4605C46.0243 22.4205 45.8243 22.4005 45.5443 22.4005C45.3043 22.4005 45.0243 22.4005 44.7043 22.4005C44.7043 23.6805 44.7043 24.9205 44.7043 26.1205C44.7443 27.2805 44.7443 28.5405 44.7043 29.9005V33.9205C45.6243 33.8805 46.5843 33.7805 47.5843 33.6205C48.6243 33.4605 49.5843 33.2005 50.4643 32.8405C51.3443 32.4805 52.0843 32.0005 52.6843 31.4005C53.3243 30.8005 53.7043 30.0005 53.8243 29.0005ZM73.9955 20.3005C73.9955 21.4205 73.9955 22.6805 73.9955 24.0805C74.0355 25.4805 74.0555 26.9405 74.0555 28.4605C74.0555 29.9405 74.0555 31.4205 74.0555 32.9005C74.0555 34.3405 74.0355 35.6805 73.9955 36.9205C73.9555 37.5205 73.8955 38.1805 73.8155 38.9005C73.7355 39.5805 73.5755 40.2205 73.3355 40.8205C73.0955 41.4205 72.7155 41.9205 72.1955 42.3205C71.7155 42.6805 71.0555 42.8405 70.2155 42.8005C68.9755 42.7205 68.0755 42.1805 67.5155 41.1805C66.9955 40.1805 66.6955 38.7805 66.6155 36.9805C66.6155 36.0605 66.5955 35.0005 66.5555 33.8005C66.5555 32.6005 66.5355 31.3805 66.4955 30.1405C66.4955 28.9005 66.4955 27.7005 66.4955 26.5405C66.4955 25.3405 66.4955 24.2605 66.4955 23.3005C66.4955 22.7405 66.4755 22.0605 66.4355 21.2605C66.4355 20.4605 66.4555 19.6405 66.4955 18.8005C66.5355 17.9605 66.6355 17.1605 66.7955 16.4005C66.9555 15.6005 67.2155 14.9405 67.5755 14.4205C67.8555 14.1005 68.2555 13.8605 68.7755 13.7005C69.2955 13.5005 69.8355 13.4005 70.3955 13.4005C70.9955 13.4005 71.5555 13.5005 72.0755 13.7005C72.6355 13.9005 73.0355 14.1805 73.2755 14.5405C73.4355 14.7805 73.5555 15.1205 73.6355 15.5605C73.7155 16.0005 73.7755 16.5005 73.8155 17.0605C73.8955 17.5805 73.9355 18.1405 73.9355 18.7405C73.9755 19.3005 73.9955 19.8205 73.9955 20.3005ZM71.7155 8.18053C70.4755 8.50053 69.4355 8.38053 68.5955 7.82053C67.7955 7.22052 67.2955 6.34052 67.0955 5.18052C66.9355 4.34053 66.9955 3.60053 67.2755 2.96052C67.5555 2.32053 67.9755 1.84053 68.5355 1.52053C69.0955 1.16053 69.7355 1.00052 70.4555 1.04052C71.1755 1.08052 71.8955 1.36052 72.6155 1.88052C73.2955 2.36053 73.7755 2.92053 74.0555 3.56052C74.3755 4.20053 74.4755 4.82053 74.3555 5.42053C74.2755 6.02052 74.0155 6.58052 73.5755 7.10053C73.1355 7.58053 72.5155 7.94053 71.7155 8.18053ZM79.3276 21.8005C79.3276 21.3205 79.3276 20.7805 79.3276 20.1805C79.3276 19.5405 79.3476 18.9005 79.3876 18.2605C79.4276 17.5805 79.4876 16.9405 79.5676 16.3405C79.6876 15.7005 79.8476 15.1405 80.0476 14.6605C80.3676 13.9405 80.8676 13.4605 81.5476 13.2205C82.2276 12.9405 82.9676 12.8205 83.7676 12.8605C84.6076 12.8605 85.2676 13.0005 85.7476 13.2805C86.2276 13.5605 86.5876 13.9405 86.8276 14.4205C87.0676 14.8605 87.2076 15.3805 87.2476 15.9805C87.3276 16.5405 87.3676 17.1405 87.3676 17.7805C87.7276 17.1405 88.2076 16.6205 88.8076 16.2205C89.4476 15.8205 90.0876 15.5005 90.7276 15.2605C91.3676 15.0205 91.9476 14.8605 92.4676 14.7805C92.9876 14.6605 93.2876 14.6005 93.3676 14.6005C94.3676 14.5205 95.2676 14.5005 96.0676 14.5405C96.9076 14.5805 97.8276 14.7605 98.8276 15.0805C99.4676 15.3205 100.128 15.6605 100.808 16.1005C101.488 16.5005 102.088 16.9805 102.608 17.5405C103.128 18.1005 103.468 18.7205 103.628 19.4005C103.828 20.0405 103.748 20.7205 103.388 21.4405C102.828 22.4405 102.208 22.9405 101.528 22.9405C100.848 22.9005 100.108 22.7805 99.3076 22.5805C98.8676 22.5005 98.3476 22.3205 97.7476 22.0405C97.1476 21.7605 96.6276 21.5805 96.1876 21.5005C94.8276 21.3005 93.6276 21.4005 92.5876 21.8005C91.5476 22.2005 90.6476 22.6805 89.8876 23.2405C89.0076 23.9205 88.2476 24.7005 87.6076 25.5805V34.2205C87.6076 35.3005 87.5876 36.4205 87.5476 37.5805C87.5476 38.7405 87.3876 39.8005 87.0676 40.7605C86.7876 41.6805 86.2876 42.4405 85.5676 43.0405C84.8876 43.6005 83.8876 43.8405 82.5676 43.7605C81.8476 43.7205 81.2076 43.3805 80.6476 42.7405C80.0876 42.0605 79.7476 41.4005 79.6276 40.7605C79.5476 40.1605 79.4876 39.4405 79.4476 38.6005C79.4076 37.7605 79.3676 36.8805 79.3276 35.9605C79.3276 35.0405 79.3276 34.1205 79.3276 33.2005C79.3276 32.2405 79.3276 31.3605 79.3276 30.5605V21.8005ZM112.01 17.7805C113.21 17.1805 114.47 16.7605 115.79 16.5205C117.11 16.2405 118.41 16.1805 119.69 16.3405C121.01 16.4605 122.27 16.8005 123.47 17.3605C124.67 17.8805 125.79 18.6405 126.83 19.6405C127.87 20.6805 128.67 21.8205 129.23 23.0605C129.79 24.3005 130.19 25.6805 130.43 27.2005C130.59 28.2405 130.85 29.2005 131.21 30.0805C131.57 30.9605 131.95 31.8405 132.35 32.7205C132.79 33.6005 133.19 34.4805 133.55 35.3605C133.95 36.2405 134.27 37.1605 134.51 38.1205C134.71 39.0405 134.63 39.9405 134.27 40.8205C133.95 41.6605 133.27 42.1805 132.23 42.3805C131.63 42.5005 131.05 42.4605 130.49 42.2605C129.97 42.0205 129.49 41.7005 129.05 41.3005C128.61 40.8605 128.21 40.4005 127.85 39.9205C127.53 39.4005 127.23 38.9205 126.95 38.4805C126.03 39.6805 125.03 40.6205 123.95 41.3005C122.87 41.9405 121.57 42.3605 120.05 42.5605C118.77 42.7205 117.55 42.7605 116.39 42.6805C115.23 42.6005 113.99 42.3805 112.67 42.0205C110.95 41.5805 109.53 40.8205 108.41 39.7405C107.33 38.6205 106.49 37.3405 105.89 35.9005C105.33 34.4205 105.03 32.8405 104.99 31.1605C104.95 29.4805 105.15 27.8205 105.59 26.1805C106.15 24.0205 106.99 22.2605 108.11 20.9005C109.23 19.5405 110.53 18.5005 112.01 17.7805ZM113.51 24.8005C112.95 25.3605 112.51 26.0205 112.19 26.7805C111.87 27.5405 111.67 28.3405 111.59 29.1805C111.55 30.0205 111.63 30.8605 111.83 31.7005C112.03 32.5405 112.35 33.2805 112.79 33.9205C113.19 34.4805 113.87 34.9605 114.83 35.3605C115.79 35.7205 116.79 35.9405 117.83 36.0205C119.03 36.1005 120.07 35.7805 120.95 35.0605C121.87 34.3405 122.55 33.4405 122.99 32.3605C123.47 31.2405 123.69 30.0605 123.65 28.8205C123.61 27.5405 123.27 26.3805 122.63 25.3405C122.15 24.5805 121.51 24.0205 120.71 23.6605C119.95 23.3005 119.13 23.1205 118.25 23.1205C117.37 23.0805 116.49 23.2205 115.61 23.5405C114.77 23.8205 114.07 24.2405 113.51 24.8005ZM147.482 38.2405C147.442 38.4405 147.402 38.6405 147.362 38.8405C147.362 39.0005 147.362 39.1805 147.362 39.3805L147.002 40.6405C146.922 40.8005 146.862 40.9005 146.822 40.9405L146.642 41.3005C146.442 41.7405 146.082 42.1005 145.562 42.3805C144.602 42.8605 143.582 42.9805 142.502 42.7405C141.822 42.6605 141.282 42.4605 140.882 42.1405C140.482 41.8605 140.202 41.5205 140.042 41.1205C139.882 40.7205 139.762 40.3205 139.682 39.9205C139.562 39.5205 139.502 39.1605 139.502 38.8405V5.24052C139.502 4.96053 139.502 4.72053 139.502 4.52053C139.542 4.28053 139.582 4.06053 139.622 3.86052C139.662 3.58053 139.702 3.34053 139.742 3.14053C139.822 2.94053 139.902 2.72053 139.982 2.48052C140.102 2.08052 140.322 1.76052 140.642 1.52053C141.122 1.16053 141.582 0.960526 142.022 0.920526C142.302 0.840525 142.562 0.800524 142.802 0.800524C143.042 0.760525 143.322 0.740525 143.642 0.740525C144.202 0.740525 144.842 0.900525 145.562 1.22053C146.122 1.54053 146.522 1.98053 146.762 2.54053C147.162 3.34053 147.362 4.08053 147.362 4.76053C147.402 5.16053 147.422 5.76053 147.422 6.56052C147.462 7.36053 147.482 7.96053 147.482 8.36053V8.60053C147.562 9.88053 147.602 11.1205 147.602 12.3205C147.602 13.4805 147.582 14.7605 147.542 16.1605C147.542 17.5205 147.522 18.8405 147.482 20.1205C147.482 21.3605 147.482 22.6005 147.482 23.8405V36.4405C147.482 36.6005 147.482 36.7605 147.482 36.9205C147.522 37.0405 147.542 37.1805 147.542 37.3405C147.542 37.7405 147.522 38.0405 147.482 38.2405Z"
     fill="black"
     id="path1" />
</svg>
